<svg width="14" height="8" viewBox="0 0 14 8" fill="none" xmlns="http://www.w3.org/2000/svg">
<path d="M2.14545 0.3548L7.00653 5.06893L11.8676 0.3548C11.9836 0.242314 12.1213 0.153087 12.2729 0.0922102C12.4244 0.0313336 12.5868 1.18523e-09 12.7509 0C12.9149 -1.18522e-09 13.0773 0.0313336 13.2289 0.0922102C13.3804 0.153087 13.5182 0.242314 13.6341 0.3548C13.7501 0.467285 13.8421 0.600824 13.9049 0.747793C13.9677 0.894763 14 1.05228 14 1.21136C14 1.37044 13.9677 1.52796 13.9049 1.67493C13.8421 1.8219 13.7501 1.95544 13.6341 2.06792L7.88353 7.64469C7.76762 7.75732 7.62995 7.84668 7.47839 7.90765C7.32682 7.96862 7.16435 8 7.00027 8C6.83618 8 6.67371 7.96862 6.52215 7.90765C6.37058 7.84668 6.23291 7.75732 6.117 7.64469L0.36639 2.06792C0.250246 1.95552 0.158101 1.82201 0.0952311 1.67503C0.0323609 1.52805 0 1.37049 0 1.21136C0 1.05224 0.0323609 0.894675 0.0952311 0.747695C0.158101 0.600715 0.250246 0.467202 0.36639 0.3548C0.855004 -0.106893 1.65683 -0.119043 2.14545 0.3548Z" fill="#808080"/>
</svg>
